Printline-Black.ufo
<glyph name="exclam" format="2">
  <advance width="169"/>
  <unicode hex="0021"/>
  <outline>
    <contour>
      <point x="53" y="203" type="line"/>
      <point x="116" y="203" type="line"/>
      <point x="135" y="700" type="line"/>
      <point x="34" y="700" type="line"/>
    </contour>
    <contour>
      <point x="85" y="0" type="qcurve" smooth="yes"/>
      <point x="106" y="0"/>
      <point x="139" y="27"/>
      <point x="139" y="64" type="qcurve" smooth="yes"/>
      <point x="139" y="101"/>
      <point x="106" y="127"/>
      <point x="85" y="127" type="qcurve" smooth="yes"/>
      <point x="64" y="127"/>
      <point x="30" y="101"/>
      <point x="30" y="64" type="qcurve" smooth="yes"/>
      <point x="30" y="27"/>
      <point x="64" y="0"/>
    </contour>
  </outline>
</glyph>
<glyph name="numbersign" format="2">
  <advance width="528"/>
  <unicode hex="0023"/>
  <outline>
    <contour>
      <point x="78" y="0" type="line"/>
      <point x="164" y="0" type="line"/>
      <point x="246" y="700" type="line"/>
      <point x="159" y="700" type="line"/>
    </contour>
    <contour>
      <point x="282" y="0" type="line"/>
      <point x="368" y="0" type="line"/>
      <point x="450" y="700" type="line"/>
      <point x="364" y="700" type="line"/>
    </contour>
    <contour>
      <point x="44" y="429" type="line"/>
      <point x="498" y="429" type="line"/>
      <point x="498" y="498" type="line"/>
      <point x="44" y="498" type="line"/>
    </contour>
    <contour>
      <point x="30" y="203" type="line"/>
      <point x="474" y="203" type="line"/>
      <point x="474" y="272" type="line"/>
      <point x="30" y="272" type="line"/>
    </contour>
  </outline>
</glyph>
<glyph name="quotesingle" format="2">
  <advance width="141"/>
  <unicode hex="0027"/>
  <outline>
    <contour>
      <point x="57" y="500" type="qcurve"/>
      <point x="79" y="500" type="line"/>
      <point x="111" y="557.375"/>
      <point x="111" y="620" type="qcurve" smooth="yes"/>
      <point x="111" y="655"/>
      <point x="93" y="700"/>
      <point x="71" y="700" type="qcurve" smooth="yes"/>
      <point x="48" y="700"/>
      <point x="30" y="651"/>
      <point x="30" y="620" type="qcurve" smooth="yes"/>
      <point x="30" y="557.375"/>
    </contour>
  </outline>
</glyph>
<glyph name="parenleft" format="2">
  <advance width="230"/>
  <unicode hex="0028"/>
  <outline>
    <contour>
      <point x="148" y="-50" type="qcurve"/>
      <point x="200" y="-50" type="line"/>
      <point x="116" y="105.805"/>
      <point x="116" y="335.962" type="qcurve" smooth="yes"/>
      <point x="116" y="563.566"/>
      <point x="200" y="750" type="qcurve"/>
      <point x="148" y="750" type="line"/>
      <point x="30" y="545.599"/>
      <point x="30" y="345.45" type="qcurve" smooth="yes"/>
      <point x="30" y="147.035"/>
    </contour>
  </outline>
</glyph>
<glyph name="asterisk" format="2">
  <advance width="352"/>
  <unicode hex="002A"/>
  <outline>
    <contour>
      <point x="134" y="450" type="line"/>
      <point x="153" y="567" type="line"/>
      <point x="62" y="487" type="line"/>
      <point x="30" y="553" type="line"/>
      <point x="149" y="600" type="line"/>
      <point x="30" y="637" type="line"/>
      <point x="62" y="703" type="line"/>
      <point x="153" y="623" type="line"/>
      <point x="134" y="740" type="line"/>
      <point x="208" y="740" type="line"/>
      <point x="189" y="623" type="line"/>
      <point x="290" y="703" type="line"/>
      <point x="322" y="637" type="line"/>
      <point x="203" y="600" type="line"/>
      <point x="322" y="553" type="line"/>
      <point x="290" y="487" type="line"/>
      <point x="189" y="567" type="line"/>
      <point x="208" y="450" type="line"/>
    </contour>
  </outline>
</glyph>
<glyph name="comma" format="2">
  <advance width="160"/>
  <unicode hex="002C"/>
  <outline>
    <contour>
      <point x="30" y="74.4827" type="qcurve" smooth="yes"/>
      <point x="30" y="15"/>
      <point x="78" y="15" type="qcurve"/>
      <point x="54" y="-70" type="line"/>
      <point x="88" y="-70" type="line"/>
      <point x="130" y="8.4"/>
      <point x="130" y="67.283" type="qcurve" smooth="yes"/>
      <point x="130" y="130"/>
      <point x="80.4653" y="130" type="qcurve" smooth="yes"/>
      <point x="59" y="130"/>
      <point x="30" y="106"/>
    </contour>
  </outline>
</glyph>
<glyph name="zero" format="2">
  <advance width="359"/>
  <unicode hex="0030"/>
  <outline>
    <contour>
      <point x="180" y="-15" type="qcurve" smooth="yes"/>
      <point x="259" y="-15"/>
      <point x="339" y="190"/>
      <point x="339" y="350" type="qcurve" smooth="yes"/>
      <point x="339" y="510"/>
      <point x="259" y="715"/>
      <point x="180" y="715" type="qcurve" smooth="yes"/>
      <point x="101" y="715"/>
      <point x="20" y="509"/>
      <point x="20" y="350" type="qcurve" smooth="yes"/>
      <point x="20" y="191"/>
      <point x="101" y="-15"/>
    </contour>
    <contour>
      <point x="180" y="64" type="qcurve" smooth="yes"/>
      <point x="142" y="64"/>
      <point x="112" y="230"/>
      <point x="112" y="350" type="qcurve" smooth="yes"/>
      <point x="112" y="470"/>
      <point x="142" y="636"/>
      <point x="180" y="636" type="qcurve" smooth="yes"/>
      <point x="218" y="636"/>
      <point x="247" y="471"/>
      <point x="247" y="350" type="qcurve" smooth="yes"/>
      <point x="247" y="229"/>
      <point x="218" y="64"/>
    </contour>
  </outline>
</glyph>
<glyph name="one" format="2">
  <advance width="218"/>
  <unicode hex="0031"/>
  <outline>
    <contour>
      <point x="92" y="0" type="line"/>
      <point x="178" y="0" type="line"/>
      <point x="178" y="700" type="line"/>
      <point x="142.588" y="700" type="line"/>
      <point x="40" y="650" type="line"/>
      <point x="40" y="581" type="line"/>
      <point x="92" y="581" type="line"/>
    </contour>
  </outline>
</glyph>
<glyph name="seven" format="2">
  <advance width="303"/>
  <unicode hex="0037"/>
  <outline>
    <contour>
      <point x="15" y="700" type="line"/>
      <point x="15" y="621" type="line"/>
      <point x="205" y="621" type="line"/>
      <point x="62" y="0" type="line"/>
      <point x="146" y="0" type="line"/>
      <point x="288" y="621" type="line"/>
      <point x="288" y="700" type="line"/>
    </contour>
  </outline>
</glyph>
<glyph name="eight" format="2">
  <advance width="341"/>
  <unicode hex="0038"/>
  <outline>
    <contour>
      <point x="321" y="183.962" type="qcurve" smooth="yes"/>
      <point x="321" y="238.577"/>
      <point x="285.552" y="322.061"/>
      <point x="245.267" y="353" type="qcurve"/>
      <point x="279.354" y="383.184"/>
      <point x="312" y="474.706"/>
      <point x="312" y="523" type="qcurve" smooth="yes"/>
      <point x="312" y="601.477"/>
      <point x="233.349" y="715"/>
      <point x="169.027" y="715" type="qcurve" smooth="yes"/>
      <point x="104.833" y="715"/>
      <point x="29" y="603.218"/>
      <point x="29" y="526.153" type="qcurve" smooth="yes"/>
      <point x="29" y="475.951"/>
      <point x="62.4203" y="382.429"/>
      <point x="95.7333" y="353" type="qcurve"/>
      <point x="53.1236" y="320.552"/>
      <point x="20" y="239.067"/>
      <point x="20" y="185.557" type="qcurve" smooth="yes"/>
      <point x="20" y="103"/>
      <point x="95.7333" y="-15"/>
      <point x="169.027" y="-15" type="qcurve" smooth="yes"/>
      <point x="245.267" y="-15"/>
      <point x="321" y="103"/>
    </contour>
    <contour>
      <point x="170.991" y="324" type="qcurve" smooth="yes"/>
      <point x="204.146" y="324"/>
      <point x="235" y="240.758"/>
      <point x="235" y="185.079" type="qcurve" smooth="yes"/>
      <point x="235" y="130.183"/>
      <point x="202.425" y="54"/>
      <point x="169.027" y="54" type="qcurve" smooth="yes"/>
      <point x="137.593" y="54"/>
      <point x="106" y="131.303"/>
      <point x="106" y="185.402" type="qcurve" smooth="yes"/>
      <point x="106" y="241.056"/>
      <point x="137.715" y="324"/>
    </contour>
    <contour>
      <point x="170.991" y="393" type="qcurve" smooth="yes"/>
      <point x="142.851" y="393"/>
      <point x="115" y="477.367"/>
      <point x="115" y="527.518" type="qcurve" smooth="yes"/>
      <point x="115" y="577.098"/>
      <point x="143.487" y="646"/>
      <point x="170.5" y="646" type="qcurve" smooth="yes"/>
      <point x="197.513" y="646"/>
      <point x="226" y="577.098"/>
      <point x="226" y="526.238" type="qcurve" smooth="yes"/>
      <point x="226" y="475.98"/>
      <point x="199.616" y="393"/>
    </contour>
  </outline>
</glyph>
<glyph name="less" format="2">
  <advance width="349"/>
  <unicode hex="003C"/>
  <outline>
    <contour>
      <point x="334" y="482" type="line"/>
      <point x="101" y="265" type="line"/>
      <point x="334" y="58" type="line"/>
      <point x="241" y="58" type="line"/>
      <point x="15" y="265" type="line"/>
      <point x="241" y="482" type="line"/>
    </contour>
  </outline>
</glyph>
<glyph name="A" format="2">
  <advance width="343"/>
  <unicode hex="0041"/>
  <anchor x="172" y="700" name="top"/>
  <outline>
    <contour>
      <point x="328" y="0" type="line"/>
      <point x="233" y="700" type="line"/>
      <point x="110" y="700" type="line"/>
      <point x="15" y="0" type="line"/>
      <point x="101" y="0" type="line"/>
      <point x="124" y="209" type="line"/>
      <point x="219" y="209" type="line"/>
      <point x="242" y="0" type="line"/>
    </contour>
    <contour>
      <point x="210" y="278" type="line"/>
      <point x="133" y="278" type="line"/>
      <point x="171" y="607" type="line"/>
    </contour>
  </outline>
</glyph>
<glyph name="I" format="2">
  <advance width="166"/>
  <unicode hex="0049"/>
  <anchor x="83" y="700" name="top"/>
  <anchor x="83" y="0" name="ced"/>
  <outline>
    <contour>
      <point x="40" y="0" type="line"/>
      <point x="126" y="0" type="line"/>
      <point x="126" y="700" type="line"/>
      <point x="40" y="700" type="line"/>
    </contour>
  </outline>
</glyph>
<glyph name="O" format="2">
  <advance width="379"/>
  <unicode hex="004F"/>
  <anchor x="189.5" y="700" name="top"/>
  <outline>
    <contour>
      <point x="190" y="-15" type="qcurve" smooth="yes"/>
      <point x="274" y="-15"/>
      <point x="359" y="192"/>
      <point x="359" y="353" type="qcurve" smooth="yes"/>
      <point x="359" y="514"/>
      <point x="274" y="721"/>
      <point x="190" y="721" type="qcurve" smooth="yes"/>
      <point x="106" y="721"/>
      <point x="20" y="514"/>
      <point x="20" y="353" type="qcurve" smooth="yes"/>
      <point x="20" y="192"/>
      <point x="106" y="-15"/>
    </contour>
    <contour>
      <point x="190" y="54" type="qcurve" smooth="yes"/>
      <point x="147" y="54"/>
      <point x="112" y="227"/>
      <point x="112" y="353" type="qcurve" smooth="yes"/>
      <point x="112" y="479"/>
      <point x="147" y="652"/>
      <point x="190" y="652" type="qcurve" smooth="yes"/>
      <point x="233" y="652"/>
      <point x="267" y="480"/>
      <point x="267" y="353" type="qcurve" smooth="yes"/>
      <point x="267" y="226"/>
      <point x="233" y="54"/>
    </contour>
  </outline>
</glyph>
<glyph name="Q" format="2">
  <advance width="359"/>
  <unicode hex="0051"/>
  <outline>
    <contour>
      <point x="179" y="-15" type="qcurve" smooth="yes"/>
      <point x="267" y="-15"/>
      <point x="337" y="192"/>
      <point x="337" y="353" type="qcurve" smooth="yes"/>
      <point x="337" y="514"/>
      <point x="267" y="721"/>
      <point x="179" y="721" type="qcurve" smooth="yes"/>
      <point x="91" y="721"/>
      <point x="20" y="514"/>
      <point x="20" y="353" type="qcurve" smooth="yes"/>
      <point x="20" y="192"/>
      <point x="91" y="-15"/>
    </contour>
    <contour>
      <point x="179" y="54" type="qcurve" smooth="yes"/>
      <point x="138" y="54"/>
      <point x="106" y="227"/>
      <point x="106" y="353" type="qcurve" smooth="yes"/>
      <point x="106" y="479"/>
      <point x="138" y="652"/>
      <point x="179" y="652" type="qcurve" smooth="yes"/>
      <point x="219" y="652"/>
      <point x="251" y="480"/>
      <point x="251" y="353" type="qcurve" smooth="yes"/>
      <point x="251" y="226"/>
      <point x="219" y="54"/>
    </contour>
    <contour>
      <point x="179" y="54" type="line"/>
      <point x="179" y="-15" type="line"/>
      <point x="315" y="-84" type="line"/>
      <point x="339" y="-11" type="line"/>
    </contour>
  </outline>
</glyph>
<glyph name="S" format="2">
  <advance width="372"/>
  <unicode hex="0053"/>
  <anchor x="186" y="700" name="top"/>
  <outline>
    <contour>
      <point x="193" y="-5" type="qcurve" smooth="yes"/>
      <point x="270" y="-5"/>
      <point x="352" y="99.3964"/>
      <point x="352" y="170.082" type="qcurve" smooth="yes"/>
      <point x="352" y="290.173"/>
      <point x="227.331" y="389.242" type="qcurve" smooth="yes"/>
      <point x="119" y="475.329"/>
      <point x="119" y="564.77" type="qcurve" smooth="yes"/>
      <point x="119" y="601.681"/>
      <point x="153.737" y="646"/>
      <point x="180.534" y="646" type="qcurve" smooth="yes"/>
      <point x="211.301" y="646"/>
      <point x="251" y="588"/>
      <point x="251" y="484" type="qcurve"/>
      <point x="337" y="484" type="line"/>
      <point x="337" y="591"/>
      <point x="267" y="715"/>
      <point x="189" y="715" type="qcurve" smooth="yes"/>
      <point x="122" y="715"/>
      <point x="33" y="621.437"/>
      <point x="33" y="552.546" type="qcurve" smooth="yes"/>
      <point x="33" y="438.782"/>
      <point x="160.196" y="329.233" type="qcurve" smooth="yes"/>
      <point x="266" y="238.108"/>
      <point x="266" y="160.504" type="qcurve" smooth="yes"/>
      <point x="266" y="126.047"/>
      <point x="227.761" y="64"/>
      <point x="191.535" y="64" type="qcurve" smooth="yes"/>
      <point x="150.277" y="64"/>
      <point x="106" y="151.33"/>
      <point x="106" y="251" type="qcurve"/>
      <point x="20" y="251" type="line"/>
      <point x="20" y="126.85"/>
      <point x="108" y="-5"/>
    </contour>
  </outline>
</glyph>
<glyph name="V" format="2">
  <advance width="342"/>
  <unicode hex="0056"/>
  <outline>
    <contour>
      <point x="15" y="700" type="line"/>
      <point x="110" y="0" type="line"/>
      <point x="232" y="0" type="line"/>
      <point x="327" y="700" type="line"/>
      <point x="241" y="700" type="line"/>
      <point x="171" y="69" type="line"/>
      <point x="100" y="700" type="line"/>
    </contour>
  </outline>
</glyph>
<glyph name="X" format="2">
  <advance width="376"/>
  <unicode hex="0058"/>
  <outline>
    <contour>
      <point x="32" y="700" type="line"/>
      <point x="134" y="370" type="line"/>
      <point x="15" y="0" type="line"/>
      <point x="101" y="0" type="line"/>
      <point x="190" y="299" type="line"/>
      <point x="275" y="0" type="line"/>
      <point x="361" y="0" type="line"/>
      <point x="246" y="363" type="line"/>
      <point x="351" y="700" type="line"/>
      <point x="265" y="700" type="line"/>
      <point x="190" y="434" type="line"/>
      <point x="118" y="700" type="line"/>
    </contour>
  </outline>
</glyph>
<glyph name="Z" format="2">
  <advance width="341"/>
  <unicode hex="005A"/>
  <anchor x="170.5" y="700" name="top"/>
  <anchor x="279" y="0" name="ogonek"/>
  <outline>
    <contour>
      <point x="15" y="0" type="line"/>
      <point x="326" y="0" type="line"/>
      <point x="326" y="69" type="line"/>
      <point x="100" y="69" type="line"/>
      <point x="326" y="621" type="line"/>
      <point x="326" y="700" type="line"/>
      <point x="35" y="700" type="line"/>
      <point x="35" y="631" type="line"/>
      <point x="240" y="631" type="line"/>
      <point x="15" y="74" type="line"/>
    </contour>
  </outline>
</glyph>
<glyph name="bracketleft" format="2">
  <advance width="251"/>
  <unicode hex="005B"/>
  <outline>
    <contour>
      <point x="30" y="-49" type="line"/>
      <point x="220" y="-49" type="line"/>
      <point x="220" y="20" type="line"/>
      <point x="116" y="20" type="line"/>
      <point x="116" y="681" type="line"/>
      <point x="221" y="681" type="line"/>
      <point x="221" y="750" type="line"/>
      <point x="30" y="750" type="line"/>
    </contour>
  </outline>
</glyph>
<glyph name="l" format="2">
  <advance width="186"/>
  <unicode hex="006C"/>
  <anchor x="73" y="750" name="top"/>
  <outline>
    <contour>
      <point x="30" y="750" type="line"/>
      <point x="30" y="130.817" type="line"/>
      <point x="30" y="56.9144"/>
      <point x="79" y="-8"/>
      <point x="156" y="-8" type="qcurve"/>
      <point x="156" y="61" type="line"/>
      <point x="130" y="58.9735"/>
      <point x="116" y="88.3573"/>
      <point x="116" y="133.953" type="qcurve"/>
      <point x="116" y="750" type="line"/>
    </contour>
  </outline>
</glyph>
<glyph name="m" format="2">
  <advance width="516"/>
  <unicode hex="006D"/>
  <outline>
    <contour>
      <point x="215" y="0" type="line"/>
      <point x="301" y="0" type="line"/>
      <point x="301" y="243.054" type="line"/>
      <point x="301" y="363.452"/>
      <point x="323.756" y="446"/>
      <point x="353" y="446" type="qcurve" smooth="yes"/>
      <point x="383" y="446"/>
      <point x="400" y="356.626"/>
      <point x="400" y="215.985" type="qcurve"/>
      <point x="400" y="0" type="line"/>
      <point x="486" y="0" type="line"/>
      <point x="486" y="299" type="line"/>
      <point x="486" y="432"/>
      <point x="432" y="515"/>
      <point x="385" y="515" type="qcurve" smooth="yes"/>
      <point x="354" y="515"/>
      <point x="304" y="477"/>
      <point x="288" y="439" type="qcurve"/>
      <point x="266.286" y="515"/>
      <point x="201.14" y="515" type="qcurve" smooth="yes"/>
      <point x="169" y="515"/>
      <point x="119" y="476"/>
      <point x="102" y="436" type="qcurve"/>
      <point x="92" y="500" type="line"/>
      <point x="30" y="500" type="line"/>
      <point x="30" y="0" type="line"/>
      <point x="116" y="0" type="line"/>
      <point x="116" y="215.939" type="line"/>
      <point x="116" y="359.563"/>
      <point x="137" y="446"/>
      <point x="168" y="446" type="qcurve" smooth="yes"/>
      <point x="198.624" y="446"/>
      <point x="215" y="361.933"/>
      <point x="215" y="245.164" type="qcurve"/>
    </contour>
  </outline>
</glyph>
<glyph name="n" format="2">
  <advance width="341"/>
  <unicode hex="006E"/>
  <anchor x="170.5" y="500" name="top"/>
  <outline>
    <contour>
      <point x="30" y="0" type="line"/>
      <point x="116" y="0" type="line"/>
      <point x="116" y="215" type="line"/>
      <point x="116" y="358"/>
      <point x="139" y="446"/>
      <point x="173" y="446" type="qcurve" smooth="yes"/>
      <point x="206" y="446"/>
      <point x="225" y="355"/>
      <point x="225" y="215" type="qcurve"/>
      <point x="225" y="0" type="line"/>
      <point x="311" y="0" type="line"/>
      <point x="311" y="299" type="line"/>
      <point x="311" y="432"/>
      <point x="254" y="515"/>
      <point x="205" y="515" type="qcurve" smooth="yes"/>
      <point x="172" y="515"/>
      <point x="119" y="476"/>
      <point x="102" y="436" type="qcurve"/>
      <point x="92" y="500" type="line"/>
      <point x="30" y="500" type="line"/>
    </contour>
  </outline>
</glyph>
<glyph name="s" format="2">
  <advance width="322"/>
  <unicode hex="0073"/>
  <anchor x="161" y="500" name="top"/>
  <outline>
    <contour>
      <point x="165.643" y="-5" type="qcurve" smooth="yes"/>
      <point x="227.551" y="-5"/>
      <point x="307" y="77.2128"/>
      <point x="307" y="133.053" type="qcurve" smooth="yes"/>
      <point x="307" y="179.979"/>
      <point x="253.122" y="260.16"/>
      <point x="189.126" y="297.668" type="qcurve" smooth="yes"/>
      <point x="154.598" y="317.905"/>
      <point x="113" y="354.988"/>
      <point x="113" y="387.992" type="qcurve" smooth="yes"/>
      <point x="113" y="417.113"/>
      <point x="140.192" y="454"/>
      <point x="158.644" y="454" type="qcurve" smooth="yes"/>
      <point x="182.923" y="454"/>
      <point x="214" y="396.475"/>
      <point x="214" y="333" type="qcurve"/>
      <point x="300" y="333" type="line"/>
      <point x="300" y="416.311"/>
      <point x="226.58" y="515"/>
      <point x="162.18" y="515" type="qcurve" smooth="yes"/>
      <point x="105.591" y="515"/>
      <point x="27" y="441.68"/>
      <point x="27" y="385.382" type="qcurve" smooth="yes"/>
      <point x="27" y="334.907"/>
      <point x="91.8358" y="257.443"/>
      <point x="146.834" y="220.586" type="qcurve" smooth="yes"/>
      <point x="183.261" y="196.175"/>
      <point x="221" y="154.846"/>
      <point x="221" y="128.065" type="qcurve" smooth="yes"/>
      <point x="221" y="101.998"/>
      <point x="191" y="56"/>
      <point x="166" y="56" type="qcurve" smooth="yes"/>
      <point x="132" y="56"/>
      <point x="101" y="133.684"/>
      <point x="101" y="179" type="qcurve"/>
      <point x="15" y="179" type="line"/>
      <point x="15" y="83.2062"/>
      <point x="102.703" y="-5"/>
    </contour>
  </outline>
</glyph>
<glyph name="t" format="2">
  <advance width="195"/>
  <unicode hex="0074"/>
  <anchor x="97.7479" y="699.698" name="top"/>
  <anchor x="97.7479" y="0" name="ced"/>
  <outline>
    <contour>
      <point x="47.8435" y="700" type="line"/>
      <point x="47.8435" y="566.77" type="line"/>
      <point x="47.8435" y="500"/>
      <point x="0.495899" y="500" type="qcurve"/>
      <point x="0.495899" y="431" type="line"/>
      <point x="45.0685" y="431" type="line"/>
      <point x="45.0685" y="138.954" type="line"/>
      <point x="45.0685" y="65.0474"/>
      <point x="108.369" y="0"/>
      <point x="186" y="0" type="qcurve"/>
      <point x="186" y="69" type="line"/>
      <point x="161.073" y="69"/>
      <point x="135" y="96.463"/>
      <point x="135" y="142.611" type="qcurve"/>
      <point x="135" y="431" type="line"/>
      <point x="195" y="431" type="line"/>
      <point x="195" y="500" type="line"/>
      <point x="134" y="500" type="line"/>
      <point x="134" y="700" type="line"/>
    </contour>
  </outline>
</glyph>
<glyph name="w" format="2">
  <advance width="492"/>
  <unicode hex="0077"/>
  <anchor x="246" y="500" name="top"/>
  <outline>
    <contour>
      <point x="98" y="0" type="line"/>
      <point x="197" y="0" type="line"/>
      <point x="246" y="370" type="line"/>
      <point x="296" y="0" type="line"/>
      <point x="394" y="0" type="line"/>
      <point x="487" y="500" type="line"/>
      <point x="401" y="500" type="line"/>
      <point x="350" y="112" type="line"/>
      <point x="289" y="500" type="line"/>
      <point x="203" y="500" type="line"/>
      <point x="143" y="112" type="line"/>
      <point x="91" y="500" type="line"/>
      <point x="5" y="500" type="line"/>
    </contour>
  </outline>
</glyph>
<glyph name="y" format="2">
  <advance width="326"/>
  <unicode hex="0079"/>
  <anchor x="163" y="500" name="top"/>
  <outline>
    <contour>
      <point x="7" y="-250" type="line"/>
      <point x="120" y="-250"/>
      <point x="187" y="-156"/>
      <point x="196" y="-111" type="qcurve" smooth="yes"/>
      <point x="321" y="500" type="line"/>
      <point x="235" y="500" type="line"/>
      <point x="173" y="119" type="line"/>
      <point x="91" y="500" type="line"/>
      <point x="5" y="500" type="line"/>
      <point x="129" y="-38" type="line"/>
      <point x="118" y="-134"/>
      <point x="66" y="-171"/>
      <point x="7" y="-171" type="qcurve"/>
    </contour>
  </outline>
</glyph>
<glyph name="braceleft" format="2">
  <advance width="258"/>
  <unicode hex="007B"/>
  <outline>
    <contour>
      <point x="218" y="750" type="qcurve"/>
      <point x="218" y="681" type="line"/>
      <point x="201.04" y="681"/>
      <point x="180.863" y="668.594"/>
      <point x="170.218" y="639.156"/>
      <point x="167" y="590.375"/>
      <point x="167" y="552.636" type="qcurve" smooth="yes"/>
      <point x="167" y="471.188"/>
      <point x="151.873" y="379.543"/>
      <point x="117.983" y="360.775" type="qcurve"/>
      <point x="151.666" y="342.45"/>
      <point x="167" y="246.334"/>
      <point x="167" y="157.051" type="qcurve" smooth="yes"/>
      <point x="167" y="116.375"/>
      <point x="170.218" y="64.5313"/>
      <point x="180.863" y="33.2188"/>
      <point x="201.04" y="20"/>
      <point x="218" y="20" type="qcurve"/>
      <point x="218" y="-49" type="line"/>
      <point x="182.998" y="-49"/>
      <point x="130.879" y="-37.25"/>
      <point x="96.901" y="4.75"/>
      <point x="81" y="86.25"/>
      <point x="81" y="156" type="qcurve" smooth="yes"/>
      <point x="81" y="216"/>
      <point x="77.75" y="284.125"/>
      <point x="68.75" y="317.875"/>
      <point x="52.75" y="326"/>
      <point x="40" y="326" type="qcurve"/>
      <point x="40" y="395" type="line"/>
      <point x="52.75" y="395"/>
      <point x="68.75" y="401.438"/>
      <point x="77.75" y="432.562"/>
      <point x="81" y="497.5"/>
      <point x="81" y="556" type="qcurve" smooth="yes"/>
      <point x="81" y="622"/>
      <point x="96.901" y="699.125"/>
      <point x="130.879" y="738.875"/>
      <point x="182.998" y="750"/>
    </contour>
  </outline>
</glyph>
<glyph name="bar" format="2">
  <advance width="86"/>
  <unicode hex="007C"/>
  <outline>
    <contour>
      <point x="0" y="-98" type="line"/>
      <point x="86" y="-98" type="line"/>
      <point x="86" y="750" type="line"/>
      <point x="0" y="750" type="line"/>
    </contour>
  </outline>
</glyph>
<glyph name="cent" format="2">
  <advance width="330"/>
  <unicode hex="00A2"/>
  <anchor x="171" y="10" name="ced"/>
  <anchor x="172.57" y="500" name="top"/>
  <outline>
    <component base="c"/>
    <contour>
      <point x="132" y="-98" type="line"/>
      <point x="218" y="-98" type="line"/>
      <point x="218" y="64" type="line"/>
      <point x="132" y="64" type="line"/>
    </contour>
    <contour>
      <point x="132" y="445.531" type="line"/>
      <point x="218" y="445.531" type="line"/>
      <point x="218" y="607.531" type="line"/>
      <point x="132" y="607.531" type="line"/>
    </contour>
  </outline>
</glyph>
<glyph name="sterling" format="2">
  <advance width="417"/>
  <unicode hex="00A3"/>
  <outline>
    <contour>
      <point x="93.0887" y="174.565" type="line"/>
      <point x="93.0995" y="131.024"/>
      <point x="74.4479" y="69"/>
      <point x="57.5291" y="69" type="qcurve" smooth="yes"/>
      <point x="40" y="69" type="line"/>
      <point x="40" y="0" type="line"/>
      <point x="381" y="0" type="line"/>
      <point x="381" y="69" type="line"/>
      <point x="149" y="69" type="line"/>
      <point x="169.456" y="69"/>
      <point x="179" y="155.549"/>
      <point x="179" y="176.663" type="qcurve"/>
      <point x="179" y="550" type="line"/>
      <point x="179" y="646"/>
      <point x="241.822" y="646" type="qcurve" smooth="yes"/>
      <point x="311" y="646"/>
      <point x="311" y="534" type="qcurve"/>
      <point x="397" y="534" type="line"/>
      <point x="397" y="715"/>
      <point x="245.659" y="715" type="qcurve" smooth="yes"/>
      <point x="92.9551" y="715"/>
      <point x="93" y="533.4" type="qcurve"/>
    </contour>
    <contour>
      <point x="50" y="255" type="line"/>
      <point x="297" y="255" type="line"/>
      <point x="297" y="334" type="line"/>
      <point x="50" y="334" type="line"/>
    </contour>
  </outline>
</glyph>
<glyph name="copyright" format="2">
  <advance width="796"/>
  <unicode hex="00A9"/>
  <outline>
    <contour>
      <point x="350.172" y="350" type="line"/>
      <point x="349.172" y="292.217"/>
      <point x="314.172" y="224"/>
      <point x="284.893" y="224" type="qcurve" smooth="yes"/>
      <point x="248.172" y="224"/>
      <point x="214.172" y="339.572"/>
      <point x="214.172" y="428.683" type="qcurve" smooth="yes"/>
      <point x="214.172" y="510.563"/>
      <point x="242.172" y="605"/>
      <point x="280.405" y="605" type="qcurve" smooth="yes"/>
      <point x="316.172" y="605"/>
      <point x="353.172" y="534.408"/>
      <point x="353.172" y="466" type="qcurve"/>
      <point x="439.172" y="466" type="line"/>
      <point x="439.172" y="561.786"/>
      <point x="353.529" y="666"/>
      <point x="285.437" y="666" type="qcurve" smooth="yes"/>
      <point x="211.815" y="666"/>
      <point x="128.172" y="535.752"/>
      <point x="128.172" y="415.412" type="qcurve" smooth="yes"/>
      <point x="128.172" y="294.377"/>
      <point x="211.45" y="163"/>
      <point x="280.892" y="163" type="qcurve" smooth="yes"/>
      <point x="342.894" y="163"/>
      <point x="436.172" y="263.518"/>
      <point x="436.172" y="350" type="qcurve"/>
    </contour>
    <contour>
      <point x="-3" y="414" type="curve" smooth="yes"/>
      <point x="-3" y="212.996"/>
      <point x="89.6389" y="78"/>
      <point x="287" y="78" type="curve" smooth="yes"/>
      <point x="484.361" y="78"/>
      <point x="577" y="212.996"/>
      <point x="577" y="414" type="curve" smooth="yes"/>
      <point x="577" y="614.221"/>
      <point x="484.361" y="750"/>
      <point x="287" y="750" type="curve" smooth="yes"/>
      <point x="89.6389" y="750"/>
      <point x="-3" y="614.221"/>
    </contour>
    <contour>
      <point x="63" y="414" type="curve" smooth="yes"/>
      <point x="63" y="571.812"/>
      <point x="133.857" y="686"/>
      <point x="287" y="686" type="curve"/>
      <point x="440.143" y="686"/>
      <point x="511" y="571.812"/>
      <point x="511" y="414" type="curve" smooth="yes"/>
      <point x="511" y="255.578"/>
      <point x="440.143" y="142"/>
      <point x="287" y="142" type="curve" smooth="yes"/>
      <point x="133.857" y="142"/>
      <point x="63" y="255.578"/>
    </contour>
  </outline>
</glyph>
<glyph name="ordfeminine" format="2">
  <advance width="338"/>
  <unicode hex="00AA"/>
  <outline>
    <contour>
      <point x="308" y="700.086" type="line"/>
      <point x="308" y="280" type="line"/>
      <point x="222" y="280" type="line"/>
      <point x="222" y="324" type="line"/>
      <point x="187.047" y="274"/>
      <point x="132.063" y="274" type="qcurve" smooth="yes"/>
      <point x="15" y="274"/>
      <point x="15" y="489.247" type="qcurve" smooth="yes"/>
      <point x="15" y="706"/>
      <point x="132.926" y="706" type="qcurve" smooth="yes"/>
      <point x="189.01" y="706"/>
      <point x="222" y="658" type="qcurve"/>
      <point x="235.31" y="700.086" type="line"/>
    </contour>
    <contour>
      <point x="167.733" y="637" type="qcurve" smooth="yes"/>
      <point x="101" y="637"/>
      <point x="101" y="492.975" type="qcurve" smooth="yes"/>
      <point x="101" y="346"/>
      <point x="169.047" y="346" type="qcurve" smooth="yes"/>
      <point x="222" y="346"/>
      <point x="222" y="429.368" type="qcurve"/>
      <point x="222" y="549.7" type="line"/>
      <point x="222" y="637"/>
    </contour>
  </outline>
</glyph>
<glyph name="registered" format="2">
  <advance width="724"/>
  <unicode hex="00AE"/>
  <anchor x="156.481" y="700" name="top"/>
  <outline>
    <contour>
      <point x="170" y="200" type="line"/>
      <point x="256" y="200" type="line"/>
      <point x="256" y="362" type="line"/>
      <point x="290.364" y="362"/>
      <point x="316" y="326.193"/>
      <point x="316" y="263.362" type="qcurve" smooth="yes"/>
      <point x="316" y="231.382"/>
      <point x="323.2" y="200"/>
      <point x="341.211" y="200" type="qcurve" smooth="yes"/>
      <point x="420" y="200" type="line"/>
      <point x="420" y="221.045" type="line"/>
      <point x="410" y="228.761"/>
      <point x="402" y="259.584"/>
      <point x="402" y="282.821" type="qcurve" smooth="yes"/>
      <point x="402" y="329.2"/>
      <point x="367.553" y="376.497"/>
      <point x="316" y="385" type="qcurve"/>
      <point x="368.566" y="395.765"/>
      <point x="411" y="459.64"/>
      <point x="411" y="503.799" type="qcurve" smooth="yes"/>
      <point x="411" y="557.842"/>
      <point x="350.685" y="640"/>
      <point x="289.258" y="640" type="qcurve" smooth="yes"/>
      <point x="170" y="640" type="line"/>
    </contour>
    <contour>
      <point x="256" y="431" type="line"/>
      <point x="256" y="571" type="line"/>
      <point x="277.454" y="571" type="line" smooth="yes"/>
      <point x="297.748" y="571"/>
      <point x="325" y="533.918"/>
      <point x="325" y="501.968" type="qcurve" smooth="yes"/>
      <point x="325" y="472.751"/>
      <point x="301.807" y="431"/>
      <point x="277.454" y="431" type="qcurve" smooth="yes"/>
    </contour>
    <contour>
      <point x="-3" y="414" type="curve" smooth="yes"/>
      <point x="-3" y="212.996"/>
      <point x="89.6389" y="78"/>
      <point x="287" y="78" type="curve" smooth="yes"/>
      <point x="484.361" y="78"/>
      <point x="577" y="212.996"/>
      <point x="577" y="414" type="curve" smooth="yes"/>
      <point x="577" y="614.221"/>
      <point x="484.361" y="750"/>
      <point x="287" y="750" type="curve" smooth="yes"/>
      <point x="89.6389" y="750"/>
      <point x="-3" y="614.221"/>
    </contour>
    <contour>
      <point x="63" y="414" type="curve" smooth="yes"/>
      <point x="63" y="571.812"/>
      <point x="133.857" y="686"/>
      <point x="287" y="686" type="curve" smooth="yes"/>
      <point x="440.143" y="686"/>
      <point x="511" y="571.812"/>
      <point x="511" y="414" type="curve" smooth="yes"/>
      <point x="511" y="255.578"/>
      <point x="440.143" y="142"/>
      <point x="287" y="142" type="curve" smooth="yes"/>
      <point x="133.857" y="142"/>
      <point x="63" y="255.578"/>
    </contour>
  </outline>
</glyph>
<glyph name="degree" format="2">
  <advance width="142"/>
  <unicode hex="00B0"/>
  <outline>
    <contour>
      <point x="0.95" y="612.888" type="qcurve" smooth="yes"/>
      <point x="0.95" y="531.87"/>
      <point x="72.2737" y="531.87" type="qcurve" smooth="yes"/>
      <point x="141.05" y="531.87"/>
      <point x="141.05" y="612.888" type="qcurve" smooth="yes"/>
      <point x="141.05" y="692.64"/>
      <point x="72.2737" y="692.64" type="qcurve" smooth="yes"/>
      <point x="0.95" y="692.64"/>
    </contour>
    <contour>
      <point x="47.1724" y="612.829" type="qcurve" smooth="yes"/>
      <point x="47.1724" y="644.475"/>
      <point x="71" y="644.475" type="qcurve" smooth="yes"/>
      <point x="94.8276" y="644.475"/>
      <point x="94.8276" y="612.829" type="qcurve" smooth="yes"/>
      <point x="94.8276" y="581.183"/>
      <point x="71" y="581.183" type="qcurve" smooth="yes"/>
      <point x="47.1724" y="581.183"/>
    </contour>
  </outline>
</glyph>
<glyph name="plusminus" format="2">
  <advance width="349"/>
  <unicode hex="00B1"/>
  <outline>
    <component base="minus" yOffset="-210"/>
    <contour>
      <point x="131" y="139" type="line"/>
      <point x="218" y="139" type="line"/>
      <point x="218" y="269" type="line"/>
      <point x="348" y="269" type="line"/>
      <point x="348" y="353" type="line"/>
      <point x="218" y="353" type="line"/>
      <point x="218" y="483" type="line"/>
      <point x="131" y="483" type="line"/>
      <point x="131" y="353" type="line"/>
      <point x="1" y="353" type="line"/>
      <point x="1" y="269" type="line"/>
      <point x="131" y="269" type="line"/>
    </contour>
  </outline>
</glyph>
<glyph name="ordmasculine" format="2">
  <advance width="331"/>
  <unicode hex="00BA"/>
  <outline>
    <contour>
      <point x="166" y="280" type="qcurve" smooth="yes"/>
      <point x="232" y="280"/>
      <point x="316" y="403"/>
      <point x="316" y="488.093" type="qcurve" smooth="yes"/>
      <point x="316" y="575.666"/>
      <point x="231" y="700"/>
      <point x="166" y="700" type="qcurve" smooth="yes"/>
      <point x="100" y="700"/>
      <point x="15" y="575.666"/>
      <point x="15" y="488.32" type="qcurve" smooth="yes"/>
      <point x="15" y="403"/>
      <point x="100" y="280"/>
    </contour>
    <contour>
      <point x="166" y="349" type="qcurve" smooth="yes"/>
      <point x="136" y="349"/>
      <point x="101" y="425.639"/>
      <point x="101" y="491" type="qcurve" smooth="yes"/>
      <point x="101" y="554.09"/>
      <point x="136" y="631"/>
      <point x="166" y="631" type="qcurve" smooth="yes"/>
      <point x="195" y="631"/>
      <point x="230" y="554.09"/>
      <point x="230" y="491" type="qcurve" smooth="yes"/>
      <point x="230" y="425.639"/>
      <point x="195" y="349"/>
    </contour>
  </outline>
</glyph>
<glyph name="Agrave" format="2">
  <advance width="343"/>
  <unicode hex="00C0"/>
  <anchor x="172.148" y="700" name="top"/>
  <outline>
    <contour>
      <point x="328" y="0" type="line"/>
      <point x="233" y="700" type="line"/>
      <point x="110" y="700" type="line"/>
      <point x="15" y="0" type="line"/>
      <point x="101" y="0" type="line"/>
      <point x="124" y="209" type="line"/>
      <point x="219" y="209" type="line"/>
      <point x="242" y="0" type="line"/>
    </contour>
    <contour>
      <point x="210" y="278" type="line"/>
      <point x="133" y="278" type="line"/>
      <point x="171" y="607" type="line"/>
    </contour>
    <contour>
      <point x="147.823" y="750" type="line"/>
      <point x="210" y="750" type="line"/>
      <point x="163.436" y="890" type="line"/>
      <point x="77.7926" y="890" type="line"/>
    </contour>
  </outline>
</glyph>
<glyph name="Acircumflex" format="2">
  <advance width="343"/>
  <unicode hex="00C2"/>
  <anchor x="170" y="700" name="top"/>
  <outline>
    <contour>
      <point x="328" y="0" type="line"/>
      <point x="233" y="700" type="line"/>
      <point x="110" y="700" type="line"/>
      <point x="15" y="0" type="line"/>
      <point x="101" y="0" type="line"/>
      <point x="124" y="209" type="line"/>
      <point x="219" y="209" type="line"/>
      <point x="242" y="0" type="line"/>
    </contour>
    <contour>
      <point x="210" y="278" type="line"/>
      <point x="133" y="278" type="line"/>
      <point x="171" y="607" type="line"/>
    </contour>
    <contour>
      <point x="130.5" y="750" type="line"/>
      <point x="171.5" y="821" type="line"/>
      <point x="212.5" y="750" type="line"/>
      <point x="298.5" y="750" type="line"/>
      <point x="213.154" y="884" type="line"/>
      <point x="129.846" y="884" type="line"/>
      <point x="44.5" y="750" type="line"/>
    </contour>
  </outline>
</glyph>
<glyph name="Edieresis" format="2">
  <advance width="302"/>
  <unicode hex="00CB"/>
  <anchor x="168.5" y="700" name="top"/>
  <anchor x="229" y="0" name="ogonek"/>
  <anchor x="175.5" y="0" name="ced"/>
  <outline>
    <contour>
      <point x="40" y="0" type="line"/>
      <point x="297" y="0" type="line"/>
      <point x="297" y="69" type="line"/>
      <point x="126" y="69" type="line"/>
      <point x="126" y="312" type="line"/>
      <point x="250" y="312" type="line"/>
      <point x="250" y="381" type="line"/>
      <point x="126" y="381" type="line"/>
      <point x="126" y="631" type="line"/>
      <point x="290" y="631" type="line"/>
      <point x="290" y="700" type="line"/>
      <point x="40" y="700" type="line"/>
    </contour>
    <contour>
      <point x="25.5" y="814.224" type="qcurve" smooth="yes"/>
      <point x="25.5" y="750.224"/>
      <point x="75.963" y="750.224" type="qcurve" smooth="yes"/>
      <point x="125.5" y="750.224"/>
      <point x="125.5" y="814.224" type="qcurve" smooth="yes"/>
      <point x="125.5" y="877.224"/>
      <point x="75.963" y="877.224" type="qcurve" smooth="yes"/>
      <point x="25.5" y="877.224"/>
    </contour>
    <contour>
      <point x="211.5" y="814.224" type="qcurve" smooth="yes"/>
      <point x="211.5" y="750.224"/>
      <point x="261.963" y="750.224" type="qcurve" smooth="yes"/>
      <point x="311.5" y="750.224"/>
      <point x="311.5" y="814.224" type="qcurve" smooth="yes"/>
      <point x="311.5" y="877.224"/>
      <point x="261.963" y="877.224" type="qcurve" smooth="yes"/>
      <point x="211.5" y="877.224"/>
    </contour>
  </outline>
</glyph>
<glyph name="Icircumflex" format="2">
  <advance width="166"/>
  <unicode hex="00CE"/>
  <anchor x="83" y="700" name="top"/>
  <anchor x="83" y="0" name="ced"/>
  <outline>
    <contour>
      <point x="40" y="0" type="line"/>
      <point x="126" y="0" type="line"/>
      <point x="126" y="700" type="line"/>
      <point x="40" y="700" type="line"/>
    </contour>
    <contour>
      <point x="42" y="750" type="line"/>
      <point x="83" y="821" type="line"/>
      <point x="124" y="750" type="line"/>
      <point x="210" y="750" type="line"/>
      <point x="124.654" y="884" type="line"/>
      <point x="41.3462" y="884" type="line"/>
      <point x="-44" y="750" type="line"/>
    </contour>
  </outline>
</glyph>
<glyph name="Oacute" format="2">
  <advance width="379"/>
  <unicode hex="00D3"/>
  <anchor x="189.5" y="700" name="top"/>
  <outline>
    <contour>
      <point x="190" y="-15" type="qcurve" smooth="yes"/>
      <point x="274" y="-15"/>
      <point x="359" y="192"/>
      <point x="359" y="353" type="qcurve" smooth="yes"/>
      <point x="359" y="514"/>
      <point x="274" y="721"/>
      <point x="190" y="721" type="qcurve" smooth="yes"/>
      <point x="106" y="721"/>
      <point x="20" y="514"/>
      <point x="20" y="353" type="qcurve" smooth="yes"/>
      <point x="20" y="192"/>
      <point x="106" y="-15"/>
    </contour>
    <contour>
      <point x="190" y="54" type="qcurve" smooth="yes"/>
      <point x="147" y="54"/>
      <point x="112" y="227"/>
      <point x="112" y="353" type="qcurve" smooth="yes"/>
      <point x="112" y="479"/>
      <point x="147" y="652"/>
      <point x="190" y="652" type="qcurve" smooth="yes"/>
      <point x="233" y="652"/>
      <point x="267" y="480"/>
      <point x="267" y="353" type="qcurve" smooth="yes"/>
      <point x="267" y="226"/>
      <point x="233" y="54"/>
    </contour>
    <contour>
      <point x="213.565" y="750" type="line"/>
      <point x="268.227" y="890" type="line"/>
      <point x="182.014" y="890" type="line"/>
      <point x="151.344" y="750" type="line"/>
    </contour>
  </outline>
</glyph>
<glyph name="Udieresis" format="2">
  <advance width="397"/>
  <unicode hex="00DC"/>
  <anchor x="198.5" y="700" name="top"/>
  <anchor x="198.5" y="0.298" name="ced"/>
  <outline>
    <contour>
      <point x="40" y="160" type="line"/>
      <point x="40" y="90"/>
      <point x="119" y="-21"/>
      <point x="193" y="-21" type="qcurve" smooth="yes"/>
      <point x="268" y="-21"/>
      <point x="357" y="90"/>
      <point x="357" y="160" type="qcurve"/>
      <point x="357" y="700" type="line"/>
      <point x="271" y="700" type="line"/>
      <point x="271" y="140" type="line"/>
      <point x="271" y="48"/>
      <point x="197" y="48" type="qcurve" smooth="yes"/>
      <point x="126" y="48"/>
      <point x="126" y="140" type="qcurve"/>
      <point x="126" y="700" type="line"/>
      <point x="40" y="700" type="line"/>
    </contour>
    <contour>
      <point x="55.5" y="814.224" type="qcurve" smooth="yes"/>
      <point x="55.5" y="750.224"/>
      <point x="105.963" y="750.224" type="qcurve" smooth="yes"/>
      <point x="155.5" y="750.224"/>
      <point x="155.5" y="814.224" type="qcurve" smooth="yes"/>
      <point x="155.5" y="877.224"/>
      <point x="105.963" y="877.224" type="qcurve" smooth="yes"/>
      <point x="55.5" y="877.224"/>
    </contour>
    <contour>
      <point x="241.5" y="814.224" type="qcurve" smooth="yes"/>
      <point x="241.5" y="750.224"/>
      <point x="291.963" y="750.224" type="qcurve" smooth="yes"/>
      <point x="341.5" y="750.224"/>
      <point x="341.5" y="814.224" type="qcurve" smooth="yes"/>
      <point x="341.5" y="877.224"/>
      <point x="291.963" y="877.224" type="qcurve" smooth="yes"/>
      <point x="241.5" y="877.224"/>
    </contour>
  </outline>
</glyph>
<glyph name="germandbls" format="2">
  <advance width="411"/>
  <unicode hex="00DF"/>
  <outline>
    <contour>
      <point x="178.6" y="0" type="line"/>
      <point x="391" y="0"/>
      <point x="391" y="183.839" type="qcurve" smooth="yes"/>
      <point x="391" y="304.79"/>
      <point x="295.25" y="363.95" type="qcurve"/>
      <point x="371" y="420.306"/>
      <point x="371" y="522.7" type="qcurve" smooth="yes"/>
      <point x="371" y="715.092"/>
      <point x="212.279" y="715.092" type="qcurve" smooth="yes"/>
      <point x="40" y="715.092"/>
      <point x="40" y="485" type="qcurve" smooth="yes"/>
      <point x="40" y="0" type="line"/>
      <point x="123" y="0" type="line"/>
      <point x="123" y="485" type="line" smooth="yes"/>
      <point x="123" y="646.126"/>
      <point x="210.25" y="646.126" type="qcurve" smooth="yes"/>
      <point x="285" y="646.126"/>
      <point x="285" y="532.698" type="qcurve" smooth="yes"/>
      <point x="285" y="399"/>
      <point x="178.6" y="399" type="qcurve"/>
      <point x="178.6" y="333" type="line"/>
      <point x="305" y="333"/>
      <point x="305" y="199.803" type="qcurve" smooth="yes"/>
      <point x="305" y="69"/>
      <point x="178.6" y="69" type="qcurve"/>
    </contour>
  </outline>
</glyph>
<glyph name="adieresis" format="2">
  <advance width="323"/>
  <unicode hex="00E4"/>
  <anchor x="160" y="500" name="top"/>
  <outline>
    <contour>
      <point x="116" y="-5" type="qcurve" smooth="yes"/>
      <point x="144" y="-5"/>
      <point x="193" y="22"/>
      <point x="207" y="54" type="qcurve"/>
      <point x="207" y="0" type="line"/>
      <point x="293" y="0" type="line"/>
      <point x="293" y="337" type="line"/>
      <point x="293" y="429"/>
      <point x="227" y="515"/>
      <point x="164" y="515" type="qcurve" smooth="yes"/>
      <point x="101" y="515"/>
      <point x="27" y="431"/>
      <point x="27" y="330" type="qcurve"/>
      <point x="113" y="330" type="line"/>
      <point x="113" y="392"/>
      <point x="136.747" y="446"/>
      <point x="164.453" y="446" type="qcurve" smooth="yes"/>
      <point x="191.168" y="446"/>
      <point x="207" y="392"/>
      <point x="207" y="326" type="qcurve"/>
      <point x="102" y="282"/>
      <point x="15" y="184"/>
      <point x="15" y="122" type="qcurve" smooth="yes"/>
      <point x="15" y="75"/>
      <point x="70" y="-5"/>
    </contour>
    <contour>
      <point x="139" y="68" type="qcurve" smooth="yes"/>
      <point x="114" y="68"/>
      <point x="86" y="98"/>
      <point x="86" y="123" type="qcurve" smooth="yes"/>
      <point x="86" y="163"/>
      <point x="167" y="238"/>
      <point x="207" y="256" type="qcurve"/>
      <point x="207" y="156" type="line"/>
      <point x="207" y="110"/>
      <point x="167" y="68"/>
    </contour>
    <contour>
      <point x="17" y="614.224" type="qcurve" smooth="yes"/>
      <point x="17" y="550.224"/>
      <point x="67.463" y="550.224" type="qcurve" smooth="yes"/>
      <point x="117" y="550.224"/>
      <point x="117" y="614.224" type="qcurve" smooth="yes"/>
      <point x="117" y="677.224"/>
      <point x="67.463" y="677.224" type="qcurve" smooth="yes"/>
      <point x="17" y="677.224"/>
    </contour>
    <contour>
      <point x="203" y="614.224" type="qcurve" smooth="yes"/>
      <point x="203" y="550.224"/>
      <point x="253.463" y="550.224" type="qcurve" smooth="yes"/>
      <point x="303" y="550.224"/>
      <point x="303" y="614.224" type="qcurve" smooth="yes"/>
      <point x="303" y="677.224"/>
      <point x="253.463" y="677.224" type="qcurve" smooth="yes"/>
      <point x="203" y="677.224"/>
    </contour>
  </outline>
</glyph>
<glyph name="iacute" format="2">
  <advance width="146"/>
  <unicode hex="00ED"/>
  <anchor x="73" y="500" name="top"/>
  <anchor x="73" y="0" name="ced"/>
  <anchor x="68" y="0" name="ogonek"/>
  <outline>
    <contour>
      <point x="30" y="0" type="line"/>
      <point x="116" y="0" type="line"/>
      <point x="116" y="500" type="line"/>
      <point x="30" y="500" type="line"/>
    </contour>
    <contour>
      <point x="97.0652" y="550" type="line"/>
      <point x="151.727" y="690" type="line"/>
      <point x="65.5137" y="690" type="line"/>
      <point x="34.8436" y="550" type="line"/>
    </contour>
  </outline>
</glyph>
<glyph name="icircumflex" format="2">
  <advance width="146"/>
  <unicode hex="00EE"/>
  <anchor x="73" y="500" name="top"/>
  <anchor x="73" y="0" name="ced"/>
  <anchor x="68" y="0" name="ogonek"/>
  <outline>
    <contour>
      <point x="30" y="0" type="line"/>
      <point x="116" y="0" type="line"/>
      <point x="116" y="500" type="line"/>
      <point x="30" y="500" type="line"/>
    </contour>
    <contour>
      <point x="32" y="566" type="line"/>
      <point x="73" y="637" type="line"/>
      <point x="114" y="566" type="line"/>
      <point x="200" y="566" type="line"/>
      <point x="114.654" y="700" type="line"/>
      <point x="31.3462" y="700" type="line"/>
      <point x="-54" y="566" type="line"/>
    </contour>
  </outline>
</glyph>
<glyph name="ograve" format="2">
  <advance width="331"/>
  <unicode hex="00F2"/>
  <anchor x="165.5" y="500" name="top"/>
  <outline>
    <contour>
      <point x="165.985" y="-5" type="qcurve" smooth="yes"/>
      <point x="232.048" y="-5"/>
      <point x="316" y="138.245"/>
      <point x="316" y="255.981" type="qcurve" smooth="yes"/>
      <point x="316" y="372.736"/>
      <point x="231.024" y="515"/>
      <point x="165.985" y="515" type="qcurve" smooth="yes"/>
      <point x="99.9762" y="515"/>
      <point x="15" y="372.736"/>
      <point x="15" y="255.981" type="qcurve" smooth="yes"/>
      <point x="15" y="138.245"/>
      <point x="99.9762" y="-5"/>
    </contour>
    <contour>
      <point x="165.985" y="64" type="qcurve" smooth="yes"/>
      <point x="135.917" y="64"/>
      <point x="101" y="168.27"/>
      <point x="101" y="255.974" type="qcurve" smooth="yes"/>
      <point x="101" y="341.73"/>
      <point x="135.917" y="446"/>
      <point x="165.985" y="446" type="qcurve" smooth="yes"/>
      <point x="195.083" y="446"/>
      <point x="230" y="341.73"/>
      <point x="230" y="255.974" type="qcurve" smooth="yes"/>
      <point x="230" y="168.27"/>
      <point x="195.083" y="64"/>
    </contour>
    <contour>
      <point x="127.323" y="550" type="line"/>
      <point x="189.5" y="550" type="line"/>
      <point x="142.936" y="690" type="line"/>
      <point x="57.2926" y="690" type="line"/>
    </contour>
  </outline>
</glyph>
<glyph name="ocircumflex" format="2">
  <advance width="331"/>
  <unicode hex="00F4"/>
  <anchor x="165.5" y="500" name="top"/>
  <outline>
    <contour>
      <point x="165.985" y="-5" type="qcurve" smooth="yes"/>
      <point x="232.048" y="-5"/>
      <point x="316" y="138.245"/>
      <point x="316" y="255.981" type="qcurve" smooth="yes"/>
      <point x="316" y="372.736"/>
      <point x="231.024" y="515"/>
      <point x="165.985" y="515" type="qcurve" smooth="yes"/>
      <point x="99.9762" y="515"/>
      <point x="15" y="372.736"/>
      <point x="15" y="255.981" type="qcurve" smooth="yes"/>
      <point x="15" y="138.245"/>
      <point x="99.9762" y="-5"/>
    </contour>
    <contour>
      <point x="165.985" y="64" type="qcurve" smooth="yes"/>
      <point x="135.917" y="64"/>
      <point x="101" y="168.27"/>
      <point x="101" y="255.974" type="qcurve" smooth="yes"/>
      <point x="101" y="341.73"/>
      <point x="135.917" y="446"/>
      <point x="165.985" y="446" type="qcurve" smooth="yes"/>
      <point x="195.083" y="446"/>
      <point x="230" y="341.73"/>
      <point x="230" y="255.974" type="qcurve" smooth="yes"/>
      <point x="230" y="168.27"/>
      <point x="195.083" y="64"/>
    </contour>
    <contour>
      <point x="124.5" y="550" type="line"/>
      <point x="165.5" y="621" type="line"/>
      <point x="206.5" y="550" type="line"/>
      <point x="292.5" y="550" type="line"/>
      <point x="207.154" y="684" type="line"/>
      <point x="123.846" y="684" type="line"/>
      <point x="38.5" y="550" type="line"/>
    </contour>
  </outline>
</glyph>
<glyph name="odieresis" format="2">
  <advance width="331"/>
  <unicode hex="00F6"/>
  <anchor x="165.5" y="500" name="top"/>
  <outline>
    <contour>
      <point x="165.985" y="-5" type="qcurve" smooth="yes"/>
      <point x="232.048" y="-5"/>
      <point x="316" y="138.245"/>
      <point x="316" y="255.981" type="qcurve" smooth="yes"/>
      <point x="316" y="372.736"/>
      <point x="231.024" y="515"/>
      <point x="165.985" y="515" type="qcurve" smooth="yes"/>
      <point x="99.9762" y="515"/>
      <point x="15" y="372.736"/>
      <point x="15" y="255.981" type="qcurve" smooth="yes"/>
      <point x="15" y="138.245"/>
      <point x="99.9762" y="-5"/>
    </contour>
    <contour>
      <point x="165.985" y="64" type="qcurve" smooth="yes"/>
      <point x="135.917" y="64"/>
      <point x="101" y="168.27"/>
      <point x="101" y="255.974" type="qcurve" smooth="yes"/>
      <point x="101" y="341.73"/>
      <point x="135.917" y="446"/>
      <point x="165.985" y="446" type="qcurve" smooth="yes"/>
      <point x="195.083" y="446"/>
      <point x="230" y="341.73"/>
      <point x="230" y="255.974" type="qcurve" smooth="yes"/>
      <point x="230" y="168.27"/>
      <point x="195.083" y="64"/>
    </contour>
    <contour>
      <point x="22.5" y="614.224" type="qcurve" smooth="yes"/>
      <point x="22.5" y="550.224"/>
      <point x="72.963" y="550.224" type="qcurve" smooth="yes"/>
      <point x="122.5" y="550.224"/>
      <point x="122.5" y="614.224" type="qcurve" smooth="yes"/>
      <point x="122.5" y="677.224"/>
      <point x="72.963" y="677.224" type="qcurve" smooth="yes"/>
      <point x="22.5" y="677.224"/>
    </contour>
    <contour>
      <point x="208.5" y="614.224" type="qcurve" smooth="yes"/>
      <point x="208.5" y="550.224"/>
      <point x="258.963" y="550.224" type="qcurve" smooth="yes"/>
      <point x="308.5" y="550.224"/>
      <point x="308.5" y="614.224" type="qcurve" smooth="yes"/>
      <point x="308.5" y="677.224"/>
      <point x="258.963" y="677.224" type="qcurve" smooth="yes"/>
      <point x="208.5" y="677.224"/>
    </contour>
  </outline>
</glyph>
<glyph name="ucircumflex" format="2">
  <advance width="341"/>
  <unicode hex="00FB"/>
  <anchor x="170.5" y="500" name="top"/>
  <outline>
    <contour>
      <point x="311" y="0" type="line"/>
      <point x="311" y="500" type="line"/>
      <point x="225" y="500" type="line"/>
      <point x="225" y="221" type="line"/>
      <point x="225" y="141.822"/>
      <point x="199" y="64"/>
      <point x="170" y="64" type="qcurve" smooth="yes"/>
      <point x="138" y="64"/>
      <point x="116" y="141.822"/>
      <point x="116" y="221.638" type="qcurve"/>
      <point x="116" y="500" type="line"/>
      <point x="30" y="500" type="line"/>
      <point x="30" y="168" type="line"/>
      <point x="30" y="81"/>
      <point x="86.6429" y="-5"/>
      <point x="140.5" y="-5" type="qcurve" smooth="yes"/>
      <point x="203.643" y="-5"/>
      <point x="225" y="58" type="qcurve"/>
      <point x="225" y="0" type="line"/>
    </contour>
    <contour>
      <point x="129.5" y="550" type="line"/>
      <point x="170.5" y="621" type="line"/>
      <point x="211.5" y="550" type="line"/>
      <point x="297.5" y="550" type="line"/>
      <point x="212.154" y="684" type="line"/>
      <point x="128.846" y="684" type="line"/>
      <point x="43.5" y="550" type="line"/>
    </contour>
  </outline>
</glyph>
<glyph name="yacute" format="2">
  <advance width="326"/>
  <unicode hex="00FD"/>
  <anchor x="163" y="500" name="top"/>
  <outline>
    <contour>
      <point x="7" y="-250" type="line"/>
      <point x="120" y="-250"/>
      <point x="187" y="-156"/>
      <point x="196" y="-111" type="qcurve" smooth="yes"/>
      <point x="321" y="500" type="line"/>
      <point x="235" y="500" type="line"/>
      <point x="173" y="119" type="line"/>
      <point x="91" y="500" type="line"/>
      <point x="5" y="500" type="line"/>
      <point x="129" y="-38" type="line"/>
      <point x="118" y="-134"/>
      <point x="66" y="-171"/>
      <point x="7" y="-171" type="qcurve"/>
    </contour>
    <contour>
      <point x="187.065" y="550" type="line"/>
      <point x="241.727" y="690" type="line"/>
      <point x="155.514" y="690" type="line"/>
      <point x="124.844" y="550" type="line"/>
    </contour>
  </outline>
</glyph>
<glyph name="Cdotaccent" format="2">
  <advance width="351"/>
  <unicode hex="010A"/>
  <anchor x="175.5" y="700" name="top"/>
  <anchor x="175.5" y="0" name="ced"/>
  <anchor x="175.5" y="-6" name="ogonek"/>
  <outline>
    <contour>
      <point x="242" y="237" type="line"/>
      <point x="241" y="153"/>
      <point x="206" y="54"/>
      <point x="179" y="54" type="qcurve" smooth="yes"/>
      <point x="140" y="54"/>
      <point x="106" y="235"/>
      <point x="106" y="353" type="qcurve" smooth="yes"/>
      <point x="106" y="503"/>
      <point x="134" y="652"/>
      <point x="175" y="652" type="qcurve" smooth="yes"/>
      <point x="208" y="652"/>
      <point x="245" y="539"/>
      <point x="245" y="430" type="qcurve"/>
      <point x="331" y="430" type="line"/>
      <point x="331" y="571"/>
      <point x="262" y="721"/>
      <point x="179" y="721" type="qcurve" smooth="yes"/>
      <point x="87" y="721"/>
      <point x="20" y="532"/>
      <point x="20" y="334" type="qcurve" smooth="yes"/>
      <point x="20" y="177"/>
      <point x="89" y="-15"/>
      <point x="176" y="-15" type="qcurve" smooth="yes"/>
      <point x="249" y="-15"/>
      <point x="328" y="119"/>
      <point x="328" y="237" type="qcurve"/>
    </contour>
    <contour>
      <point x="125.5" y="819.039" type="qcurve" smooth="yes"/>
      <point x="125.5" y="750"/>
      <point x="175.5" y="750" type="qcurve" smooth="yes"/>
      <point x="225.5" y="750"/>
      <point x="225.5" y="819.039" type="qcurve" smooth="yes"/>
      <point x="225.5" y="887"/>
      <point x="175.5" y="887" type="qcurve" smooth="yes"/>
      <point x="125.5" y="887"/>
    </contour>
  </outline>
</glyph>
<glyph name="ccaron" format="2">
  <advance width="330"/>
  <unicode hex="010D"/>
  <anchor x="171" y="0" name="ced"/>
  <anchor x="172.57" y="500" name="top"/>
  <outline>
    <contour>
      <point x="169.24" y="-5" type="qcurve" smooth="yes"/>
      <point x="234.06" y="-5"/>
      <point x="313" y="112.706"/>
      <point x="313" y="182" type="qcurve"/>
      <point x="227" y="182" type="line"/>
      <point x="227" y="134.062"/>
      <point x="202" y="64"/>
      <point x="171" y="64" type="qcurve" smooth="yes"/>
      <point x="134" y="64"/>
      <point x="101" y="172.168"/>
      <point x="101" y="255" type="qcurve" smooth="yes"/>
      <point x="101" y="337.832"/>
      <point x="134" y="446"/>
      <point x="175.517" y="446" type="qcurve" smooth="yes"/>
      <point x="206" y="446"/>
      <point x="229" y="390.593"/>
      <point x="229" y="330" type="qcurve"/>
      <point x="315" y="330" type="line"/>
      <point x="315" y="411.048"/>
      <point x="235.072" y="515"/>
      <point x="172.215" y="515" type="qcurve" smooth="yes"/>
      <point x="100" y="515"/>
      <point x="15" y="372.736"/>
      <point x="15" y="255" type="qcurve" smooth="yes"/>
      <point x="15" y="138.245"/>
      <point x="98" y="-5"/>
    </contour>
    <contour>
      <point x="214.224" y="549.998" type="line"/>
      <point x="289.57" y="683.998" type="line"/>
      <point x="203.57" y="683.998" type="line"/>
      <point x="172.57" y="612.998" type="line"/>
      <point x="141.57" y="683.998" type="line"/>
      <point x="55.5702" y="683.998" type="line"/>
      <point x="130.916" y="549.998" type="line"/>
    </contour>
  </outline>
</glyph>
<glyph name="Eogonek" format="2">
  <advance width="302"/>
  <unicode hex="0118"/>
  <anchor x="168.5" y="700" name="top"/>
  <anchor x="229" y="0" name="ogonek"/>
  <anchor x="175.5" y="0" name="ced"/>
  <outline>
    <contour>
      <point x="40" y="0" type="line"/>
      <point x="297" y="0" type="line"/>
      <point x="297" y="69" type="line"/>
      <point x="126" y="69" type="line"/>
      <point x="126" y="312" type="line"/>
      <point x="250" y="312" type="line"/>
      <point x="250" y="381" type="line"/>
      <point x="126" y="381" type="line"/>
      <point x="126" y="631" type="line"/>
      <point x="290" y="631" type="line"/>
      <point x="290" y="700" type="line"/>
      <point x="40" y="700" type="line"/>
    </contour>
    <contour>
      <point x="246" y="0" type="line"/>
      <point x="218.629" y="-35.5375" type="line"/>
      <point x="170" y="-98.6761"/>
      <point x="170" y="-154.534" type="qcurve" smooth="yes"/>
      <point x="170" y="-259"/>
      <point x="328" y="-259" type="qcurve"/>
      <point x="328" y="-190" type="line"/>
      <point x="256" y="-190"/>
      <point x="256" y="-143.85" type="qcurve" smooth="yes"/>
      <point x="256" y="-108.898"/>
      <point x="302.624" y="-42.0921" type="qcurve"/>
      <point x="332" y="0" type="line"/>
    </contour>
  </outline>
</glyph>
<glyph name="eogonek" format="2">
  <advance width="330"/>
  <unicode hex="0119"/>
  <anchor x="165" y="500" name="top"/>
  <anchor x="165" y="10" name="ced"/>
  <anchor x="180.208" y="10" name="ogonek"/>
  <outline>
    <contour>
      <point x="167.005" y="-5" type="qcurve" smooth="yes"/>
      <point x="223" y="-5"/>
      <point x="305.786" y="85.6532"/>
      <point x="312.952" y="159" type="qcurve"/>
      <point x="225" y="159" type="line"/>
      <point x="225" y="110.587"/>
      <point x="191" y="64"/>
      <point x="167" y="64" type="qcurve" smooth="yes"/>
      <point x="135" y="64"/>
      <point x="101" y="155.246"/>
      <point x="101" y="223" type="qcurve"/>
      <point x="315" y="223" type="line"/>
      <point x="315" y="301.059" type="line"/>
      <point x="315" y="392.654"/>
      <point x="236.167" y="515"/>
      <point x="168" y="515" type="qcurve" smooth="yes"/>
      <point x="97" y="515"/>
      <point x="15" y="376.207"/>
      <point x="15" y="258.411" type="qcurve" smooth="yes"/>
      <point x="15" y="138.024"/>
      <point x="98" y="-5"/>
    </contour>
    <contour>
      <point x="101" y="292" type="line"/>
      <point x="101" y="348.366"/>
      <point x="134" y="446"/>
      <point x="170" y="446" type="qcurve" smooth="yes"/>
      <point x="204" y="446"/>
      <point x="229" y="356.418"/>
      <point x="229" y="292" type="qcurve"/>
    </contour>
    <contour>
      <point x="197.208" y="10" type="line"/>
      <point x="169.838" y="-25.5375" type="line"/>
      <point x="121.208" y="-88.6761"/>
      <point x="121.208" y="-144.534" type="qcurve" smooth="yes"/>
      <point x="121.208" y="-249"/>
      <point x="279.208" y="-249" type="qcurve"/>
      <point x="279.208" y="-180" type="line"/>
      <point x="207.208" y="-180"/>
      <point x="207.208" y="-133.85" type="qcurve" smooth="yes"/>
      <point x="207.208" y="-98.8983"/>
      <point x="253.832" y="-32.0921" type="qcurve"/>
      <point x="283.208" y="10" type="line"/>
    </contour>
  </outline>
</glyph>
<glyph name="Ecaron" format="2">
  <advance width="302"/>
  <unicode hex="011A"/>
  <anchor x="168.5" y="700" name="top"/>
  <anchor x="229" y="0" name="ogonek"/>
  <anchor x="175.5" y="0" name="ced"/>
  <outline>
    <contour>
      <point x="40" y="0" type="line"/>
      <point x="297" y="0" type="line"/>
      <point x="297" y="69" type="line"/>
      <point x="126" y="69" type="line"/>
      <point x="126" y="312" type="line"/>
      <point x="250" y="312" type="line"/>
      <point x="250" y="381" type="line"/>
      <point x="126" y="381" type="line"/>
      <point x="126" y="631" type="line"/>
      <point x="290" y="631" type="line"/>
      <point x="290" y="700" type="line"/>
      <point x="40" y="700" type="line"/>
    </contour>
    <contour>
      <point x="210.154" y="749.998" type="line"/>
      <point x="285.5" y="883.998" type="line"/>
      <point x="199.5" y="883.998" type="line"/>
      <point x="168.5" y="812.998" type="line"/>
      <point x="137.5" y="883.998" type="line"/>
      <point x="51.5" y="883.998" type="line"/>
      <point x="126.846" y="749.998" type="line"/>
    </contour>
  </outline>
</glyph>
<glyph name="Hbar" format="2">
  <advance width="367"/>
  <unicode hex="0126"/>
  <outline>
    <contour>
      <point x="241" y="0" type="line"/>
      <point x="327" y="0" type="line"/>
      <point x="327" y="700" type="line"/>
      <point x="241" y="700" type="line"/>
      <point x="241" y="381" type="line"/>
      <point x="126" y="381" type="line"/>
      <point x="126" y="700" type="line"/>
      <point x="40" y="700" type="line"/>
      <point x="40" y="0" type="line"/>
      <point x="126" y="0" type="line"/>
      <point x="126" y="312" type="line"/>
      <point x="241" y="312" type="line"/>
    </contour>
    <contour>
      <point x="0" y="484.953" type="line"/>
      <point x="367.002" y="484.953" type="line"/>
      <point x="367.002" y="553.953" type="line"/>
      <point x="0" y="553.953" type="line"/>
    </contour>
  </outline>
</glyph>
<glyph name="imacron" format="2">
  <advance width="146"/>
  <unicode hex="012B"/>
  <anchor x="73" y="499.761" name="top"/>
  <outline>
    <contour>
      <point x="30" y="0" type="line"/>
      <point x="116" y="0" type="line"/>
      <point x="116" y="500" type="line"/>
      <point x="30" y="500" type="line"/>
    </contour>
    <contour>
      <point x="-16.5" y="549.761" type="line"/>
      <point x="163.5" y="549.761" type="line"/>
      <point x="163.5" y="618.761" type="line"/>
      <point x="-16.5" y="618.761" type="line"/>
    </contour>
  </outline>
</glyph>
<glyph name="Iogonek" format="2">
  <advance width="166"/>
  <unicode hex="012E"/>
  <anchor x="83" y="700" name="top"/>
  <anchor x="83" y="0" name="ced"/>
  <outline>
    <contour>
      <point x="40" y="0" type="line"/>
      <point x="126" y="0" type="line"/>
      <point x="126" y="700" type="line"/>
      <point x="40" y="700" type="line"/>
    </contour>
    <contour>
      <point x="40" y="0" type="line"/>
      <point x="12.6291" y="-35.5375" type="line"/>
      <point x="-36" y="-98.6761"/>
      <point x="-36" y="-154.534" type="qcurve" smooth="yes"/>
      <point x="-36" y="-259"/>
      <point x="122" y="-259" type="qcurve"/>
      <point x="122" y="-190" type="line"/>
      <point x="50" y="-190"/>
      <point x="50" y="-143.85" type="qcurve" smooth="yes"/>
      <point x="50" y="-108.898"/>
      <point x="96.624" y="-42.0921" type="qcurve"/>
      <point x="126" y="0" type="line"/>
    </contour>
  </outline>
</glyph>
<glyph name="iogonek" format="2">
  <advance width="161"/>
  <unicode hex="012F"/>
  <anchor x="79" y="0" name="ced"/>
  <anchor x="77" y="0" name="ogonek"/>
  <outline>
    <contour>
      <point x="38" y="0" type="line"/>
      <point x="124" y="0" type="line"/>
      <point x="124" y="500" type="line"/>
      <point x="38" y="500" type="line"/>
    </contour>
    <contour>
      <point x="81" y="574" type="qcurve" smooth="yes"/>
      <point x="101.183" y="574"/>
      <point x="130.541" y="600"/>
      <point x="130.541" y="637" type="qcurve" smooth="yes"/>
      <point x="130.541" y="674"/>
      <point x="101.183" y="700"/>
      <point x="81" y="700" type="qcurve" smooth="yes"/>
      <point x="60.8165" y="700"/>
      <point x="30.5413" y="674"/>
      <point x="30.5413" y="637" type="qcurve" smooth="yes"/>
      <point x="30.5413" y="600"/>
      <point x="60.8165" y="574"/>
    </contour>
    <contour>
      <point x="75.5" y="0" type="line"/>
      <point x="48.1291" y="-35.5375" type="line"/>
      <point x="-0.5" y="-98.6761"/>
      <point x="-0.5" y="-154.534" type="qcurve" smooth="yes"/>
      <point x="-0.5" y="-259"/>
      <point x="157.5" y="-259" type="qcurve"/>
      <point x="157.5" y="-190" type="line"/>
      <point x="85.5" y="-190"/>
      <point x="85.5" y="-143.85" type="qcurve" smooth="yes"/>
      <point x="85.5" y="-108.898"/>
      <point x="132.124" y="-42.0921" type="qcurve"/>
      <point x="161.5" y="0" type="line"/>
    </contour>
  </outline>
</glyph>
<glyph name="Idotaccent" format="2">
  <advance width="166"/>
  <unicode hex="0130"/>
  <anchor x="83" y="700" name="top"/>
  <anchor x="83" y="0" name="ced"/>
  <outline>
    <contour>
      <point x="40" y="0" type="line"/>
      <point x="126" y="0" type="line"/>
      <point x="126" y="700" type="line"/>
      <point x="40" y="700" type="line"/>
    </contour>
    <contour>
      <point x="33" y="819.039" type="qcurve" smooth="yes"/>
      <point x="33" y="750"/>
      <point x="83" y="750" type="qcurve" smooth="yes"/>
      <point x="133" y="750"/>
      <point x="133" y="819.039" type="qcurve" smooth="yes"/>
      <point x="133" y="887"/>
      <point x="83" y="887" type="qcurve" smooth="yes"/>
      <point x="33" y="887"/>
    </contour>
  </outline>
</glyph>
<glyph name="dotlessi" format="2">
  <advance width="146"/>
  <unicode hex="0131"/>
  <anchor x="73" y="500" name="top"/>
  <anchor x="73" y="0" name="ced"/>
  <anchor x="68" y="0" name="ogonek"/>
  <outline>
    <contour>
      <point x="30" y="0" type="line"/>
      <point x="116" y="0" type="line"/>
      <point x="116" y="500" type="line"/>
      <point x="30" y="500" type="line"/>
    </contour>
  </outline>
</glyph>
<glyph name="Kcommaaccent" format="2">
  <advance width="361"/>
  <unicode hex="0136"/>
  <outline>
    <contour>
      <point x="260" y="0" type="line"/>
      <point x="346" y="0" type="line"/>
      <point x="199" y="382" type="line"/>
      <point x="339" y="700" type="line"/>
      <point x="253" y="700" type="line"/>
      <point x="126" y="406" type="line"/>
      <point x="126" y="700" type="line"/>
      <point x="40" y="700" type="line"/>
      <point x="40" y="0" type="line"/>
      <point x="126" y="0" type="line"/>
      <point x="126" y="284" type="line"/>
      <point x="143" y="310" type="line"/>
    </contour>
    <contour>
      <point x="130.5" y="-96.9927" type="qcurve" smooth="yes"/>
      <point x="130.5" y="-156.475"/>
      <point x="178.5" y="-156.475" type="qcurve"/>
      <point x="154.5" y="-241.475" type="line"/>
      <point x="188.5" y="-241.475" type="line"/>
      <point x="230.5" y="-163.075"/>
      <point x="230.5" y="-104.192" type="qcurve" smooth="yes"/>
      <point x="230.5" y="-41.4754"/>
      <point x="180.965" y="-41.4754" type="qcurve" smooth="yes"/>
      <point x="159.5" y="-41.4754"/>
      <point x="130.5" y="-65.4754"/>
    </contour>
  </outline>
</glyph>
<glyph name="Lacute" format="2">
  <advance width="276"/>
  <unicode hex="0139"/>
  <anchor x="83" y="700" name="top"/>
  <outline>
    <contour>
      <point x="40" y="0" type="line"/>
      <point x="271" y="0" type="line"/>
      <point x="271" y="69" type="line"/>
      <point x="126" y="69" type="line"/>
      <point x="126" y="700" type="line"/>
      <point x="40" y="700" type="line"/>
    </contour>
    <contour>
      <point x="107.065" y="750" type="line"/>
      <point x="161.727" y="890" type="line"/>
      <point x="75.5136" y="890" type="line"/>
      <point x="44.8436" y="750" type="line"/>
    </contour>
  </outline>
</glyph>
<glyph name="lacute" format="2">
  <advance width="186"/>
  <unicode hex="013A"/>
  <anchor x="73" y="750" name="top"/>
  <outline>
    <contour>
      <point x="30" y="750" type="line"/>
      <point x="30" y="130.817" type="line"/>
      <point x="30" y="56.9144"/>
      <point x="79" y="-8"/>
      <point x="156" y="-8" type="qcurve"/>
      <point x="156" y="71" type="line"/>
      <point x="130" y="69.0029"/>
      <point x="116" y="97.9603"/>
      <point x="116" y="142.894" type="qcurve"/>
      <point x="116" y="750" type="line"/>
    </contour>
    <contour>
      <point x="97.0652" y="800" type="line"/>
      <point x="151.727" y="940" type="line"/>
      <point x="65.5137" y="940" type="line"/>
      <point x="34.8436" y="800" type="line"/>
    </contour>
  </outline>
</glyph>
<glyph name="Lcaron" format="2">
  <advance width="279"/>
  <unicode hex="013D"/>
  <anchor x="83" y="700" name="top"/>
  <outline>
    <contour>
      <point x="40" y="0" type="line"/>
      <point x="271" y="0" type="line"/>
      <point x="271" y="69" type="line"/>
      <point x="126" y="69" type="line"/>
      <point x="126" y="700" type="line"/>
      <point x="40" y="700" type="line"/>
    </contour>
    <contour>
      <point x="173.278" y="644.481" type="qcurve" smooth="yes"/>
      <point x="173.278" y="584.998"/>
      <point x="221.278" y="584.998" type="qcurve"/>
      <point x="197.278" y="499.998" type="line"/>
      <point x="231.278" y="499.998" type="line"/>
      <point x="273.278" y="578.398"/>
      <point x="273.278" y="637.281" type="qcurve" smooth="yes"/>
      <point x="273.278" y="699.998"/>
      <point x="223.743" y="699.998" type="qcurve" smooth="yes"/>
      <point x="202.278" y="699.998"/>
      <point x="173.278" y="675.998"/>
    </contour>
  </outline>
</glyph>
<glyph name="lslash" format="2">
  <advance width="401"/>
  <unicode hex="0142"/>
  <anchor x="195" y="750" name="top"/>
  <outline>
    <contour>
      <point x="70.4845" y="258.117" type="line"/>
      <point x="370.995" y="431.617" type="line"/>
      <point x="331.495" y="500.033" type="line"/>
      <point x="30.9845" y="326.533" type="line"/>
    </contour>
    <contour>
      <point x="152" y="750" type="line"/>
      <point x="152" y="130.817" type="line"/>
      <point x="152" y="56.9144"/>
      <point x="201" y="-8"/>
      <point x="278" y="-8" type="qcurve"/>
      <point x="278" y="61" type="line"/>
      <point x="252" y="58.9735"/>
      <point x="238" y="88.3573"/>
      <point x="238" y="133.953" type="qcurve"/>
      <point x="238" y="750" type="line"/>
    </contour>
  </outline>
</glyph>
<glyph name="dotlessj" format="2">
  <advance width="185"/>
  <unicode hex="0237"/>
  <anchor x="94" y="500" name="top"/>
  <anchor x="210" y="0" name="ced"/>
  <outline>
    <contour>
      <point x="-15" y="-250" type="line"/>
      <point x="137" y="-250"/>
      <point x="137" y="-65" type="qcurve" smooth="yes"/>
      <point x="137" y="500" type="line"/>
      <point x="51" y="500" type="line"/>
      <point x="51" y="-105" type="line" smooth="yes"/>
      <point x="51" y="-181"/>
      <point x="-15" y="-181" type="qcurve"/>
    </contour>
  </outline>
</glyph>
<glyph name="hungarumlaut" format="2">
  <advance width="300"/>
  <unicode hex="02DD"/>
  <anchor x="156" y="700" name="_top"/>
  <outline>
    <contour>
      <point x="105.338" y="750" type="line"/>
      <point x="160" y="890" type="line"/>
      <point x="73.7867" y="890" type="line"/>
      <point x="43.1166" y="750" type="line"/>
    </contour>
    <contour>
      <point x="235.338" y="750" type="line"/>
      <point x="290" y="890" type="line"/>
      <point x="203.787" y="890" type="line"/>
      <point x="173.117" y="750" type="line"/>
    </contour>
  </outline>
</glyph>
<glyph name="Germandbls" format="2">
  <advance width="501"/>
  <unicode hex="1E9E"/>
  <outline>
    <contour>
      <point x="40" y="0" type="line"/>
      <point x="123" y="0" type="line"/>
      <point x="123" y="485" type="line" smooth="yes"/>
      <point x="123" y="563.4"/>
      <point x="173.75" y="646"/>
      <point x="234" y="646" type="qcurve" smooth="yes"/>
      <point x="383.3" y="646" type="line"/>
      <point x="239.2" y="402" type="line"/>
      <point x="239.2" y="333" type="line"/>
      <point x="395" y="333"/>
      <point x="395" y="200" type="qcurve" smooth="yes"/>
      <point x="395" y="69"/>
      <point x="239.2" y="69" type="qcurve"/>
      <point x="239.2" y="0" type="line"/>
      <point x="481" y="0"/>
      <point x="481" y="214.45" type="qcurve" smooth="yes"/>
      <point x="481" y="357.85"/>
      <point x="325" y="402" type="qcurve"/>
      <point x="469.25" y="646" type="line"/>
      <point x="469.25" y="714.75" type="line"/>
      <point x="234" y="714.75" type="line" smooth="yes"/>
      <point x="138.55" y="714.75"/>
      <point x="40" y="591"/>
      <point x="40" y="485" type="qcurve" smooth="yes"/>
    </contour>
  </outline>
</glyph>
<glyph name="emdash" format="2">
  <advance width="694"/>
  <unicode hex="2014"/>
  <outline>
    <contour>
      <point x="0" y="284" type="line"/>
      <point x="694" y="284" type="line"/>
      <point x="694" y="363" type="line"/>
      <point x="0" y="363" type="line"/>
    </contour>
  </outline>
</glyph>
<glyph name="guilsinglleft" format="2">
  <advance width="219"/>
  <unicode hex="2039"/>
  <outline>
    <contour>
      <point x="204" y="482" type="line"/>
      <point x="101" y="265" type="line"/>
      <point x="204" y="58" type="line"/>
      <point x="111" y="58" type="line"/>
      <point x="15" y="265" type="line"/>
      <point x="111" y="482" type="line"/>
    </contour>
  </outline>
</glyph>
<glyph name="minus" format="2">
  <advance width="349"/>
  <unicode hex="2212"/>
  <outline>
    <contour>
      <point x="0" y="268" type="line"/>
      <point x="349" y="268" type="line"/>
      <point x="349" y="354" type="line"/>
      <point x="0" y="354" type="line"/>
    </contour>
  </outline>
</glyph>
<glyph name="f_f" format="2">
  <advance width="424"/>
  <unicode hex="FB00"/>
  <outline>
    <contour>
      <point x="47" y="0" type="line"/>
      <point x="133" y="0" type="line"/>
      <point x="133" y="431" type="line"/>
      <point x="225" y="431" type="line"/>
      <point x="225" y="500" type="line"/>
      <point x="134" y="500" type="line"/>
      <point x="134" y="575"/>
      <point x="158.649" y="646"/>
      <point x="207" y="646" type="qcurve"/>
      <point x="207" y="715" type="line"/>
      <point x="115" y="715"/>
      <point x="48" y="630.303"/>
      <point x="48" y="554.453" type="qcurve" smooth="yes"/>
      <point x="48" y="500"/>
      <point x="0" y="500" type="qcurve"/>
      <point x="0" y="431" type="line"/>
      <point x="47" y="431" type="line"/>
    </contour>
    <contour>
      <point x="264" y="0" type="line"/>
      <point x="350" y="0" type="line"/>
      <point x="350" y="431" type="line"/>
      <point x="412" y="431" type="line"/>
      <point x="412" y="500" type="line"/>
      <point x="351" y="500" type="line"/>
      <point x="351" y="575"/>
      <point x="375.649" y="646"/>
      <point x="424" y="646" type="qcurve"/>
      <point x="424" y="715" type="line"/>
      <point x="332" y="715"/>
      <point x="265" y="630.303"/>
      <point x="265" y="554.453" type="qcurve" smooth="yes"/>
      <point x="265" y="500"/>
      <point x="217" y="500" type="qcurve"/>
      <point x="217" y="431" type="line"/>
      <point x="264" y="431" type="line"/>
    </contour>
  </outline>
</glyph>
<glyph name=".notdef" format="2">
  <advance width="250"/>
  <outline>
    <contour>
      <point x="0" y="-259" type="line"/>
      <point x="250" y="-259" type="line"/>
      <point x="250" y="750" type="line"/>
      <point x="0" y="750" type="line"/>
    </contour>
    <contour>
      <point x="94" y="-158" type="line"/>
      <point x="94" y="639" type="line"/>
      <point x="156" y="639" type="line"/>
      <point x="156" y="-158" type="line"/>
    </contour>
  </outline>
</glyph>
<glyph name="a.alt" format="2">
  <advance width="338"/>
  <outline>
    <contour>
      <point x="323" y="500.086" type="line"/>
      <point x="323" y="0" type="line"/>
      <point x="237" y="0" type="line"/>
      <point x="237" y="44" type="line"/>
      <point x="212.407" y="-6"/>
      <point x="157.741" y="-6" type="qcurve" smooth="yes"/>
      <point x="30" y="-6"/>
      <point x="30" y="247.79" type="qcurve" smooth="yes"/>
      <point x="30" y="506"/>
      <point x="159.417" y="506" type="qcurve" smooth="yes"/>
      <point x="224.211" y="506"/>
      <point x="237" y="437.986" type="qcurve"/>
      <point x="250.31" y="500.086" type="line"/>
    </contour>
    <contour>
      <point x="183.023" y="437" type="qcurve" smooth="yes"/>
      <point x="116" y="437"/>
      <point x="116" y="252.408" type="qcurve" smooth="yes"/>
      <point x="116" y="66"/>
      <point x="183.985" y="66" type="qcurve" smooth="yes"/>
      <point x="237" y="66"/>
      <point x="237" y="172.286" type="qcurve"/>
      <point x="237" y="325.7" type="line"/>
      <point x="237" y="437"/>
    </contour>
  </outline>
</glyph>
